<svg width="514" height="594" viewBox="0 0 514 594" fill="none" xmlns="http://www.w3.org/2000/svg">
<path d="M297.448 292.536C297.448 453.787 279.442 584.507 257.231 584.507C235.02 584.507 217.014 453.787 217.014 292.536C217.014 131.285 214.797 0.565308 257.231 0.565308C299.982 0.565308 297.448 131.285 297.448 292.536Z" fill="#D9D9D9"/>
<path d="M12.4444 310.903C29.2279 294.119 220.497 177.268 220.497 177.268L222.081 316.603L1.67757 363.154C1.67757 363.154 -4.33919 327.686 12.4444 310.903Z" fill="#D9D9D9"/>
<path d="M502.018 310.903C485.234 294.119 293.965 177.268 293.965 177.268L292.382 316.603L512.785 363.154C512.785 363.154 518.801 327.686 502.018 310.903Z" fill="#D9D9D9"/>
<path d="M314.765 564.24L276.764 526.239L264.515 570.612L297.031 591.473C326.671 597.047 321.204 575.64 314.765 564.24Z" fill="#D9D9D9"/>
<path d="M199.291 564.24L237.292 526.239L249.541 570.612L217.025 591.473C187.385 597.047 192.852 575.64 199.291 564.24Z" fill="#D9D9D9"/>
<path d="M141.013 204.185L150.513 222.868L175.847 206.718L164.763 188.035C145.003 179.928 140.696 195.424 141.013 204.185Z" fill="#D9D9D9"/>
<path d="M52.3608 258.394L61.861 277.077L87.1946 260.927L76.1112 242.244C56.3509 234.137 52.0442 249.633 52.3608 258.394Z" fill="#D9D9D9"/>
<path d="M367.749 203.926L358.249 222.61L332.915 206.46L343.999 187.776C363.759 179.669 368.066 195.165 367.749 203.926Z" fill="#D9D9D9"/>
<path d="M456.401 258.136L446.901 276.819L421.568 260.669L432.651 241.985C452.411 233.879 456.718 249.374 456.401 258.136Z" fill="#D9D9D9"/>
<path d="M177.43 280.186V325.786L47.2782 353.02L46.6449 337.82L177.43 280.186Z" fill="#828282"/>
<path d="M337.349 280.502V326.103L467.501 353.337L468.134 338.137L337.349 280.502Z" fill="#828282"/>
<path d="M266.379 559.49C266.379 578.203 267.963 594.007 257.196 594.007C247.696 594.007 249.596 578.836 249.596 560.123C249.596 541.409 257.196 526.239 257.196 526.239C257.196 526.239 266.379 540.776 266.379 559.49Z" fill="#828282"/>
</svg>
