<svg width="44" height="77" viewBox="0 0 44 77" fill="none" xmlns="http://www.w3.org/2000/svg">
<path fill-rule="evenodd" clip-rule="evenodd" d="M15.2888 64.31C18.6196 68.2227 20.4317 72.9353 21.0707 76.0502L22.0503 75.8493H23.0503V75.4521C23.7069 72.337 25.5157 67.6819 28.8118 63.81C32.122 59.9214 36.9025 56.8493 43.5503 56.8493V54.8493C36.1981 54.8493 30.8952 58.2772 27.2888 62.5136C25.4693 64.651 24.0741 67.0008 23.0503 69.2395L23.0503 0.349289H21.0503L21.0503 69.7395C20.0265 67.5008 18.6313 65.151 16.8118 63.0136C13.2054 58.7772 7.90248 55.3493 0.550293 55.3493L0.550293 57.3493C7.1981 57.3493 11.9785 60.4214 15.2888 64.31Z" fill="black"/>
</svg>
