<svg width="44" height="77" viewBox="0 0 44 77" fill="none" xmlns="http://www.w3.org/2000/svg">
<path fill-rule="evenodd" clip-rule="evenodd" d="M15.2888 12.0895C18.6196 8.17682 20.4317 3.46422 21.0707 0.349291L22.0503 0.550235L23.0503 0.550235V0.947375C23.7069 4.06253 25.5157 8.71767 28.8118 12.5895C32.122 16.4781 36.9025 19.5502 43.5503 19.5502V21.5502C36.1981 21.5502 30.8952 18.1223 27.2888 13.886C25.4693 11.7485 24.0741 9.39867 23.0503 7.16005L23.0503 76.0502H21.0503L21.0503 6.66004C20.0265 8.89867 18.6313 11.2485 16.8118 13.386C13.2054 17.6223 7.90248 21.0502 0.550293 21.0502L0.550293 19.0502C7.1981 19.0502 11.9785 15.9781 15.2888 12.0895Z" fill="black"/>
</svg>
