<svg width="76" height="44" viewBox="0 0 76 44" fill="none" xmlns="http://www.w3.org/2000/svg">
<path fill-rule="evenodd" clip-rule="evenodd" d="M64.1605 15.4383C68.0732 18.7691 72.7858 20.5812 75.9008 21.2202L75.6998 22.1998L75.6998 23.1998L75.3027 23.1998C72.1875 23.8563 67.5324 25.6652 63.6605 28.9612C59.7719 32.2715 56.6998 37.052 56.6998 43.6998L54.6998 43.6998C54.6998 36.3476 58.1277 31.0447 62.3641 27.4383C64.5015 25.6188 66.8514 24.2235 69.09 23.1998L0.199812 23.1998L0.199812 21.1998L69.59 21.1998C67.3514 20.176 65.0015 18.7808 62.8641 16.9612C58.6277 13.3549 55.1998 8.05195 55.1998 0.699763L57.1998 0.699763C57.1998 7.34757 60.2719 12.128 64.1605 15.4383Z" fill="black"/>
</svg>
