<svg width="76" height="44" viewBox="0 0 76 44" fill="none" xmlns="http://www.w3.org/2000/svg">
<path fill-rule="evenodd" clip-rule="evenodd" d="M11.8396 15.4383C7.92688 18.7691 3.21428 20.5812 0.0993573 21.2202L0.300302 22.1998L0.300302 23.1998L0.697441 23.1998C3.8126 23.8563 8.46773 25.6652 12.3396 28.9612C16.2282 32.2715 19.3003 37.052 19.3003 43.6998L21.3003 43.6998C21.3003 36.3476 17.8724 31.0447 13.636 27.4383C11.4986 25.6188 9.14874 24.2235 6.91011 23.1998L75.8003 23.1998L75.8003 21.1998L6.41011 21.1998C8.64874 20.176 10.9986 18.7808 13.136 16.9612C17.3724 13.3549 20.8003 8.05195 20.8003 0.699763L18.8003 0.699763C18.8003 7.34757 15.7282 12.128 11.8396 15.4383Z" fill="black"/>
</svg>
