<svg width="1406" height="791" viewBox="0 0 1406 791" fill="none" xmlns="http://www.w3.org/2000/svg">
<path d="M117.317 101.433C124.34 97.8617 132.107 96 139.985 96H1356C1383.61 96 1406 118.386 1406 146V674.131C1406 690.909 1397.58 706.569 1383.59 715.828L1282.55 782.697C1274.36 788.112 1264.77 791 1254.95 791H1068H702H50C22.3857 791 0 768.614 0 741V443V259L8.92314 181.666C10.8447 165.013 20.9839 150.431 35.9261 142.831L117.317 101.433Z" fill="#724127"/>
<rect y="142" width="1300" height="649" rx="50" fill="#894C2B"/>
<path fill-rule="evenodd" clip-rule="evenodd" d="M408 30C408 13.4314 421.431 0 438 0H896C912.569 0 926 13.4314 926 30V142H883V42H451V142H408V30Z" fill="#462513"/>
<path d="M1020.5 96.3538L1127.5 96.3538L1071.5 142.008L957 142.008L1020.5 96.3538Z" fill="#99694F"/>
<path d="M269.5 96.3538L376.5 96.3538L320.5 142.008L206 142.008L269.5 96.3538Z" fill="#99694F"/>
<rect x="206" y="142" width="115" height="649" fill="#A77357"/>
<rect x="957" y="142" width="115" height="649" fill="#A77357"/>
<path d="M678 142H1250C1277.61 142 1300 164.386 1300 192V741C1300 768.614 1277.61 791 1250 791H678V142Z" fill="#92502D"/>
</svg>
