<svg xmlns="http://www.w3.org/2000/svg" version="1.1" xmlns:xlink="http://www.w3.org/1999/xlink" xmlns:svgjs="http://svgjs.dev/svgjs" width="2000" height="227" viewBox="0 0 2000 227"><g transform="matrix(1,0,0,1,-1.2121212121212466,-0.5071665729810633)"><svg viewBox="0 0 396 45" data-background-color="#c8c8c8" preserveAspectRatio="xMidYMid meet" height="227" width="2000" xmlns="http://www.w3.org/2000/svg" xmlns:xlink="http://www.w3.org/1999/xlink"><g id="tight-bounds" transform="matrix(1,0,0,1,0.2400000000000091,0.10053962900505553)"><svg viewBox="0 0 395.52 44.79892074198988" height="44.79892074198988" width="395.52"><g><svg viewBox="0 0 395.52 44.79892074198988" height="44.79892074198988" width="395.52"><g><svg viewBox="0 0 395.52 44.79892074198988" height="44.79892074198988" width="395.52"><g><svg viewBox="0 0 395.52 44.79892074198988" height="44.79892074198988" width="395.52"><g><svg viewBox="0 0 395.52 44.79892074198988" height="44.79892074198988" width="395.52"><g id="textblocktransform"><svg viewBox="0 0 395.52 44.79892074198988" height="44.79892074198988" width="395.52" id="textblock"><g><svg viewBox="0 0 395.52 44.79892074198988" height="44.79892074198988" width="395.52"><g transform="matrix(1,0,0,1,0,0)"><svg width="395.52" viewBox="1 -39.6 355.78 40.300000000000004" height="44.79892074198988" data-palette-color="#333333"><path d="M29.85-23.8L38.45-8.2 40.95-8.2 40.95 0 27.3 0 19.8-15.5 17.5-13.6 17.5-8.2 19.9-8.2 19.9 0 1 0 1-8.2 3.5-8.2 3.5-30.7 1-30.7 1-38.9 19.9-38.9 19.9-30.7 17.5-30.7 17.5-24.1 25.25-30.7 22.1-30.7 22.1-38.9 40.7-38.9 40.7-30.7 38.2-30.7 29.85-23.8ZM61.75 0L42.75 0 42.75-8.2 45.25-8.2 45.25-30.7 42.75-30.7 42.75-38.9 61.75-38.9 61.75-30.7 59.25-30.7 59.25-8.2 61.75-8.2 61.75 0ZM118.9-38.9L118.9-30.7 116.4-30.7 116.4-8.2 118.9-8.2 118.9 0 100 0 100-8.2 102.4-8.2 102.4-25.7 93.9 0 86.5 0 77.75-25.45 77.75-8.2 80.15-8.2 80.15 0 63.75 0 63.75-8.2 66.25-8.2 66.25-30.7 63.75-30.7 63.75-38.9 86.65-38.9 91.84-23.3 96.84-38.9 118.9-38.9ZM157.74-30.7L157.74-38.9 173.09-38.9 173.09-30.7 171.09-30.7 161.44-13.4 161.44-8.2 163.94-8.2 163.94 0 144.94 0 144.94-8.2 147.44-8.2 147.44-13.4 137.49-30.7 135.49-30.7 135.49-38.9 154.84-38.9 154.84-30.7 153.09-30.7 156.04-22.95 156.54-22.95 159.49-30.7 157.74-30.7ZM191.99 0.7Q182.84 0.7 177.86-4.1 172.89-8.9 172.89-19.45L172.89-19.45Q172.89-30 177.86-34.8 182.84-39.6 191.99-39.6L191.99-39.6Q201.14-39.6 206.11-34.8 211.09-30 211.09-19.45L211.09-19.45Q211.09-8.9 206.11-4.1 201.14 0.7 191.99 0.7L191.99 0.7ZM191.99-8.2Q193.69-8.2 194.54-9.1 195.39-10 195.39-11.9L195.39-11.9 195.39-27Q195.39-28.9 194.54-29.8 193.69-30.7 191.99-30.7L191.99-30.7Q190.29-30.7 189.44-29.8 188.59-28.9 188.59-27L188.59-27 188.59-11.9Q188.59-9.95 189.44-9.08 190.29-8.2 191.99-8.2L191.99-8.2ZM231.49 0.7Q223.64 0.7 219.36-2.75 215.09-6.2 215.09-13.95L215.09-13.95 215.09-30.7 212.59-30.7 212.59-38.9 231.09-38.9 231.09-30.7 229.09-30.7 229.09-11.4Q229.09-9.75 229.81-8.97 230.54-8.2 231.99-8.2L231.99-8.2Q233.44-8.2 234.16-8.97 234.89-9.75 234.89-11.4L234.89-11.4 234.89-30.7 232.89-30.7 232.89-38.9 250.04-38.9 250.04-30.7 247.54-30.7 247.54-13.95Q247.54-6.2 243.39-2.75 239.24 0.7 231.49 0.7L231.49 0.7ZM251.83 0L251.83-8.2 254.33-8.2 254.33-30.7 251.83-30.7 251.83-38.9 274.78-38.9Q281.03-38.9 284.53-36.35 288.03-33.8 288.03-29.05L288.03-29.05Q288.03-26.1 286.63-24.08 285.23-22.05 283.36-21.03 281.48-20 279.73-19.65L279.73-19.65 279.73-19.15Q283.28-18.8 286.13-16.9 288.98-15 288.98-10.1L288.98-10.1Q288.98-4.85 285.03-2.43 281.08 0 274.78 0L274.78 0 251.83 0ZM268.33-22.5L271.03-22.5Q272.48-22.5 273.21-23.28 273.93-24.05 273.93-25.7L273.93-25.7 273.93-27.5Q273.93-29.15 273.21-29.93 272.48-30.7 271.03-30.7L271.03-30.7 268.33-30.7 268.33-22.5ZM268.33-8.2L271.38-8.2Q272.83-8.2 273.56-8.97 274.28-9.75 274.28-11.4L274.28-11.4 274.28-13.6Q274.28-15.25 273.56-16.03 272.83-16.8 271.38-16.8L271.38-16.8 268.33-16.8 268.33-8.2ZM309.58 0L290.58 0 290.58-8.2 293.08-8.2 293.08-30.7 290.58-30.7 290.58-38.9 309.58-38.9 309.58-30.7 307.08-30.7 307.08-8.2 309.58-8.2 309.58 0ZM340.38-30.7L340.38-38.9 356.78-38.9 356.78-30.7 354.28-30.7 354.28 0 340.23 0 325.58-22.55 325.58-8.2 327.98-8.2 327.98 0 311.58 0 311.58-8.2 314.08-8.2 314.08-30.7 311.58-30.7 311.58-38.9 329.63-38.9 342.78-18.85 342.78-30.7 340.38-30.7Z" opacity="1" transform="matrix(1,0,0,1,0,0)" fill="#333333" class="wordmark-text-0" data-fill-palette-color="primary" id="text-0"></path></svg></g></svg></g></svg></g></svg></g><g></g></svg></g></svg></g></svg></g><defs></defs></svg><rect width="395.52" height="44.79892074198988" fill="none" stroke="none" visibility="hidden"></rect></g></svg></g></svg>