<svg width="1420" height="200" viewBox="0 0 1420 200" fill="none" xmlns="http://www.w3.org/2000/svg">
<path d="M1309 0C1377 0 1417 131.802 1417 131.802C1116.3 131.802 933.704 89.0459 633 89.0459V0H1309Z" fill="#272948"/>
<path d="M110 0C42 0 2 131.802 2 131.802C302.704 131.802 485.296 89.0459 786 89.0459V0H110Z" fill="#272948"/>
<path d="M110 0C42 0 2.5 131.095 2.5 131.095C303.204 131.095 -84.7037 89.0459 216 89.0459L238 44.523L260 0H110Z" fill="#757699" fill-opacity="0.3"/>
<path d="M406 0H354L314 90.4594H366.576L406 0Z" fill="#757699" fill-opacity="0.3"/>
<path d="M1310 0C1378 0 1412 118.728 1412 118.728C1111.3 118.728 1504.7 89.0459 1204 89.0459L1182 44.523L1160 0H1310Z" fill="#757699" fill-opacity="0.1"/>
<rect y="89.0459" width="1420" height="110.954" rx="55.477" fill="#343940"/>
<rect x="16" y="96.8198" width="1388" height="95.4064" rx="47.7032" fill="#8B8E95"/>
<circle cx="115" cy="152.382" r="35" fill="#A3A7AD"/>
<circle cx="114.426" cy="151.808" r="26.3934" fill="#5A5B60"/>
<circle cx="265" cy="152.382" r="35" fill="#A3A7AD"/>
<circle cx="264.426" cy="151.808" r="26.3934" fill="#5A5B60"/>
<circle cx="415" cy="152.382" r="35" fill="#A3A7AD"/>
<circle cx="414.426" cy="151.808" r="26.3934" fill="#5A5B60"/>
<circle cx="565" cy="152.382" r="35" fill="#A3A7AD"/>
<circle cx="564.426" cy="151.808" r="26.3934" fill="#5A5B60"/>
<circle cx="715" cy="152.382" r="35" fill="#A3A7AD"/>
<circle cx="714.426" cy="151.808" r="26.3934" fill="#5A5B60"/>
<circle cx="865" cy="152.382" r="35" fill="#A3A7AD"/>
<circle cx="864.426" cy="151.808" r="26.3934" fill="#5A5B60"/>
<circle cx="1015" cy="152.382" r="35" fill="#A3A7AD"/>
<circle cx="1014.43" cy="151.808" r="26.3934" fill="#5A5B60"/>
<circle cx="1165" cy="152.382" r="35" fill="#A3A7AD"/>
<circle cx="1164.43" cy="151.808" r="26.3934" fill="#5A5B60"/>
<circle cx="1315" cy="152.382" r="35" fill="#A3A7AD"/>
<circle cx="1314.43" cy="151.808" r="26.3934" fill="#5A5B60"/>
<path d="M167 0H178L134 89.0459H117L167 0Z" fill="#484A6F" fill-opacity="0.5"/>
<path d="M313 0H324L282 89.0459H265L313 0Z" fill="#484A6F" fill-opacity="0.5"/>
<path d="M456.5 0H467.5L430 89.0459H413L456.5 0Z" fill="#484A6F" fill-opacity="0.5"/>
<path d="M1257.5 0H1246.5L1290.5 89.0459H1307.5L1257.5 0Z" fill="#484A6F" fill-opacity="0.5"/>
<path d="M1111.5 0H1100.5L1142.5 89.0459H1159.5L1111.5 0Z" fill="#484A6F" fill-opacity="0.5"/>
<path d="M968 0H957L994.5 89.0459H1011.5L968 0Z" fill="#484A6F" fill-opacity="0.5"/>
<path d="M715 0H705L702 89.0459H719L715 0Z" fill="#484A6F" fill-opacity="0.5"/>
<path d="M582 0H572L555 89.0459H572L582 0Z" fill="#484A6F" fill-opacity="0.5"/>
<path d="M834 0H844L861 89.0459H844L834 0Z" fill="#484A6F" fill-opacity="0.5"/>
</svg>
